# xmcd
#
# Track frame offsets:
#	150
#	12937
#	27434
#	41178
#	53545
#	66327
#	77677
#	91698
#	106801
#	119339
#	134499
#	148540
#	163285
#	176307
#	191920
#
# Disc length: 2802 seconds
#
# Revision: 0
# Processed by: cddbd v1.5.2PL0 Copyright (c) Steve Scherf et al.
# Submitted via: dBpowerAMP V4.0
#
DISCID=cb0af00f
DTITLE=Michel Teló - Na Balada
DYEAR=1900
DGENRE=
TTITLE0=Ai se eu te pego
TTITLE1=Humilde Residência
TTITLE2=Coincidência
TTITLE3=Vamo mexê
TTITLE4=Se eu não for
TTITLE5=Desce do muro
TTITLE6=Pra ser perfeito
TTITLE7=Pensamentos bons
TTITLE8=Se intrometeu
TTITLE9=Eu te amo e open bar
TTITLE10=Fugidinha
TTITLE11=Ponto certo
TTITLE12=E' mara
TTITLE13=Medley: telefone mudo/boate azul
TTITLE14=Vida bela vida
EXTD=
EXTT0=
EXTT1=
EXTT2=
EXTT3=
EXTT4=
EXTT5=
EXTT6=
EXTT7=
EXTT8=
EXTT9=
EXTT10=
EXTT11=
EXTT12=
EXTT13=
EXTT14=
PLAYORDER=
